<svg xmlns="http://www.w3.org/2000/svg" viewBox="0 0 512 512">
  <rect width="512" height="512" fill="#2A2723"/>
  <g transform="translate(64, 64)">
    <!-- Game blocks representing the lastblock game -->
    <rect x="0" y="0" width="96" height="96" rx="8" fill="#3D8C9E"/>
    <rect x="96" y="0" width="96" height="96" rx="8" fill="#4682B4"/>
    <rect x="192" y="0" width="96" height="96" rx="8" fill="#7B68EE"/>
    <rect x="288" y="0" width="96" height="96" rx="8" fill="#6A5ACD"/>
    
    <rect x="0" y="96" width="96" height="96" rx="8" fill="#D4AF91"/>
    <rect x="96" y="96" width="96" height="96" rx="8" fill="#9370DB"/>
    <rect x="192" y="96" width="96" height="96" rx="8" fill="#CD7F32"/>
    <rect x="288" y="96" width="96" height="96" rx="8" fill="#B22222"/>

    <rect x="0" y="192" width="96" height="96" rx="8" fill="#6B8E23"/>
    <rect x="96" y="192" width="96" height="96" rx="8" fill="#C19A6B"/>
    <rect x="192" y="192" width="96" height="96" rx="8" fill="#87CEEB"/>
    <rect x="288" y="192" width="96" height="96" rx="8" fill="#3D8C9E"/>
    
    <rect x="0" y="288" width="96" height="96" rx="8" fill="#7B68EE"/>
    <rect x="96" y="288" width="96" height="96" rx="8" fill="#CD7F32"/>
    <rect x="192" y="288" width="96" height="96" rx="8" fill="#D4AF91"/>
    <rect x="288" y="288" width="96" height="96" rx="8" fill="#6B8E23"/>
  </g>
</svg>